<svg width="179" height="72" viewBox="0 0 179 72" fill="none" xmlns="http://www.w3.org/2000/svg">
<path d="M17.8447 9.9802C33.7812 4.78012 40.6443 1.42574 43.3123 0C46.9419 23.5248 35.3014 31.8195 29.4793 34.9307C23.6571 38.0419 18.8038 41.3465 16.3818 44.9109C10.569 53.4653 10.0839 65.1089 10.569 72C6.92236 63.4455 4.01376 54.1782 2.55832 49.901C-5.44767 24.2376 6.92118 13.5446 17.8447 9.9802Z" fill="white"/>
<path d="M32.2752 39C17.655 42.5368 14 56.6842 14 67C14.3087 62.5789 16.193 59.7789 24.9651 54.4737C33.7372 49.1684 33.7372 43.4211 32.2752 39Z" fill="white"/>
<path d="M59.0476 22.2645V23.2659H63.2235V27.9335H59.0476V40.3409H54.1615V27.9335H51V23.2659H54.1615V22.0269C54.1615 19.8543 54.7814 18.1513 56.0213 16.918C57.2724 15.6846 58.9123 15.0679 60.9411 15.0679C61.8879 15.0679 62.7219 15.2433 63.4433 15.5941L63.1897 19.9052C62.6261 19.7355 62.1189 19.6506 61.6681 19.6506C60.9355 19.6506 60.3155 19.8939 59.8083 20.3805C59.3011 20.867 59.0476 21.495 59.0476 22.2645Z" fill="white"/>
<path d="M66.2498 15.8826C66.8359 15.2942 67.5347 15 68.3462 15C69.1577 15 69.8565 15.2942 70.4426 15.8826C71.0287 16.4597 71.3218 17.1499 71.3218 17.9533C71.3218 18.768 71.0287 19.4696 70.4426 20.058C69.8565 20.6464 69.1577 20.9406 68.3462 20.9406C67.5347 20.9406 66.8359 20.6464 66.2498 20.058C65.6637 19.4696 65.3706 18.768 65.3706 17.9533C65.3706 17.1499 65.6637 16.4597 66.2498 15.8826ZM65.9116 23.2659H70.7976V40.3409H65.9116V23.2659Z" fill="white"/>
<path d="M83.7988 22.9265C85.9403 22.9265 87.6254 23.6223 88.8539 25.0141C90.0937 26.3946 90.7136 28.2843 90.7136 30.6832V40.3409H85.8276V31.5149C85.8276 30.3494 85.5346 29.4385 84.9485 28.7822C84.3624 28.1259 83.5621 27.7977 82.5477 27.7977C81.8715 27.7977 81.2234 27.9731 80.6035 28.3239C79.9836 28.6747 79.4989 29.1443 79.1495 29.7327V40.3409H74.2635V23.2659H79.1495V25.2857C79.6116 24.5615 80.2597 23.9901 81.0938 23.5714C81.9391 23.1414 82.8408 22.9265 83.7988 22.9265Z" fill="white"/>
<path d="M106.369 23.2659H111.255V40.3409H106.369V38.3211C105.952 39.0226 105.276 39.5941 104.34 40.0354C103.416 40.4653 102.419 40.6803 101.348 40.6803C99.8939 40.6803 98.5583 40.2843 97.341 39.4922C96.1238 38.7001 95.1657 37.6252 94.4669 36.2673C93.7681 34.8982 93.4187 33.4045 93.4187 31.7864C93.4187 29.3197 94.1851 27.2263 95.718 25.5064C97.2621 23.7864 99.1388 22.9265 101.348 22.9265C102.407 22.9265 103.405 23.1471 104.34 23.5884C105.276 24.0297 105.952 24.5955 106.369 25.2857V23.2659ZM102.43 36.0297C103.253 36.0297 104.019 35.8317 104.729 35.4356C105.451 35.0396 105.997 34.5304 106.369 33.9081V29.7327C105.997 29.0877 105.451 28.5615 104.729 28.1542C104.019 27.7468 103.253 27.5431 102.43 27.5431C101.235 27.5431 100.232 27.9505 99.4206 28.7652C98.609 29.5686 98.2033 30.5757 98.2033 31.7864C98.2033 32.9972 98.609 34.0099 99.4206 34.8246C100.232 35.628 101.235 36.0297 102.43 36.0297Z" fill="white"/>
<path d="M124.206 22.9265C126.347 22.9265 128.032 23.6223 129.261 25.0141C130.501 26.3946 131.12 28.2843 131.12 30.6832V40.3409H126.234V31.5149C126.234 30.3494 125.941 29.4385 125.355 28.7822C124.769 28.1259 123.969 27.7977 122.955 27.7977C122.278 27.7977 121.63 27.9731 121.01 28.3239C120.39 28.6747 119.906 29.1443 119.556 29.7327V40.3409H114.67V23.2659H119.556V25.2857C120.018 24.5615 120.667 23.9901 121.501 23.5714C122.346 23.1414 123.248 22.9265 124.206 22.9265Z" fill="white"/>
<path d="M146.776 23.232H151.662V39.611C151.662 41.1726 151.273 42.5474 150.495 43.7355C149.729 44.9236 148.692 45.8232 147.385 46.4342C146.077 47.0566 144.606 47.3678 142.972 47.3678C141.484 47.3678 140.008 47.1188 138.542 46.6209C137.088 46.1344 135.967 45.4781 135.178 44.6521L137.494 41.2405C138.948 42.4059 140.729 42.9887 142.837 42.9887C143.896 42.9887 144.815 42.6605 145.593 42.0042C146.382 41.3479 146.776 40.5163 146.776 39.5092V37.8798C146.359 38.5474 145.683 39.0962 144.747 39.5262C143.812 39.9562 142.814 40.1711 141.755 40.1711C140.301 40.1711 138.965 39.7864 137.748 39.017C136.531 38.2475 135.573 37.2008 134.874 35.8769C134.175 34.5417 133.826 33.0877 133.826 31.5149C133.826 29.9533 134.175 28.5106 134.874 27.1867C135.573 25.8628 136.531 24.8161 137.748 24.0467C138.965 23.2772 140.301 22.8925 141.755 22.8925C142.814 22.8925 143.812 23.1132 144.747 23.5545C145.683 23.9844 146.359 24.5389 146.776 25.2178V23.232ZM142.837 35.6563C143.66 35.6563 144.426 35.4639 145.136 35.0792C145.857 34.6832 146.404 34.1796 146.776 33.5686V29.529C146.404 28.9066 145.857 28.3975 145.136 28.0014C144.426 27.6054 143.66 27.4074 142.837 27.4074C141.642 27.4074 140.639 27.8034 139.827 28.5955C139.016 29.3762 138.61 30.3494 138.61 31.5149C138.61 32.6917 139.016 33.6761 139.827 34.4682C140.639 35.2603 141.642 35.6563 142.837 35.6563Z" fill="white"/>
<path d="M171.392 31.0566C171.392 31.7468 171.347 32.3861 171.257 32.9745H159.033C159.259 34.1287 159.749 35.0113 160.504 35.6223C161.259 36.2221 162.223 36.5219 163.395 36.5219C164.162 36.5219 164.894 36.3579 165.593 36.0297C166.303 35.7016 166.805 35.2829 167.098 34.7737L170.902 37.116C170.282 38.2475 169.301 39.1245 167.96 39.7468C166.619 40.3692 165.063 40.6803 163.294 40.6803C160.792 40.6803 158.673 39.8204 156.937 38.1004C155.212 36.3692 154.35 34.2419 154.35 31.7185C154.35 29.2405 155.201 27.1584 156.903 25.4724C158.616 23.7751 160.713 22.9265 163.192 22.9265C165.492 22.9265 167.43 23.7129 169.008 25.2857C170.597 26.8586 171.392 28.7822 171.392 31.0566ZM159.101 29.8515H166.506C166.405 29.0028 166.01 28.2956 165.323 27.7298C164.635 27.1641 163.84 26.8812 162.939 26.8812C161.924 26.8812 161.09 27.1414 160.437 27.662C159.783 28.1825 159.338 28.9123 159.101 29.8515Z" fill="white"/>
<path d="M179 16.0014V40.3409H174.114V16.0014H179Z" fill="white"/>
<path d="M57.2836 53.396C58.6117 53.396 59.7327 53.8944 60.6466 54.8911C61.5671 55.8878 62.0273 57.1122 62.0273 58.5644C62.0273 60.0033 61.5671 61.2211 60.6466 62.2178C59.7327 63.2145 58.6117 63.7129 57.2836 63.7129C56.6261 63.7129 56.0015 63.571 55.4098 63.2871C54.8181 62.9967 54.3907 62.6271 54.1277 62.1782V67H51.889V53.604H54.1277V54.9208C54.3907 54.4851 54.8181 54.1221 55.4098 53.8317C56.0081 53.5413 56.6327 53.396 57.2836 53.396ZM56.8201 61.5644C57.6683 61.5644 58.3783 61.2805 58.9503 60.7129C59.5223 60.1386 59.8083 59.4224 59.8083 58.5644C59.8083 57.6931 59.5223 56.9736 58.9503 56.4059C58.3783 55.8317 57.6683 55.5446 56.8201 55.5446C56.2678 55.5446 55.7418 55.6865 55.2422 55.9703C54.7425 56.2475 54.371 56.6007 54.1277 57.0297V60.0693C54.371 60.5116 54.7392 60.8713 55.2323 61.1485C55.732 61.4257 56.2612 61.5644 56.8201 61.5644Z" fill="white"/>
<path d="M71.1104 53.604H73.359V63.5149H71.1104V62.1782C70.8474 62.6271 70.4201 62.9967 69.8283 63.2871C69.2432 63.571 68.6219 63.7129 67.9644 63.7129C66.6363 63.7129 65.512 63.2145 64.5915 62.2178C63.6776 61.2211 63.2207 59.9967 63.2207 58.5446C63.2207 57.1056 63.6776 55.8878 64.5915 54.8911C65.512 53.8944 66.6363 53.396 67.9644 53.396C68.6153 53.396 69.2366 53.5413 69.8283 53.8317C70.4201 54.1221 70.8474 54.4917 71.1104 54.9406V53.604ZM68.4279 61.5644C68.9802 61.5644 69.5029 61.4257 69.996 61.1485C70.4957 60.8713 70.8672 60.5182 71.1104 60.0891V57.0495C70.8672 56.6073 70.499 56.2475 70.0059 55.9703C69.5127 55.6865 68.9868 55.5446 68.4279 55.5446C67.5798 55.5446 66.8697 55.8317 66.2977 56.4059C65.7257 56.9736 65.4397 57.6865 65.4397 58.5446C65.4397 59.4026 65.7257 60.1221 66.2977 60.703C66.8697 61.2772 67.5798 61.5644 68.4279 61.5644Z" fill="white"/>
<path d="M80.4992 53.396C80.9529 53.396 81.3309 53.4488 81.6334 53.5545L81.4953 55.6832C81.114 55.5512 80.7228 55.4851 80.3217 55.4851C79.9141 55.4851 79.4834 55.6403 79.0298 55.9505C78.5761 56.2541 78.2244 56.6667 77.9745 57.1881V63.5149H75.7358V53.604H77.9745V54.9604C78.2178 54.4983 78.5827 54.1221 79.0692 53.8317C79.5557 53.5413 80.0324 53.396 80.4992 53.396Z" fill="white"/>
<path d="M89.0991 61.4257L89.2273 63.4158C88.9051 63.5743 88.5008 63.6535 88.0142 63.6535C86.9031 63.6535 86.0056 63.3135 85.3218 62.6337C84.6381 61.9472 84.2962 61.0033 84.2962 59.802V55.7525H82.4026V53.604H84.2962V50.9406H86.5349V53.604H89.1286V55.7525H86.5349V59.703C86.5349 60.264 86.7058 60.7129 87.0477 61.0495C87.3962 61.3795 87.8268 61.5446 88.3397 61.5446C88.5829 61.5446 88.8361 61.505 89.0991 61.4257Z" fill="white"/>
<path d="M96.2886 53.396C97.5247 53.396 98.5076 53.7987 99.2374 54.604C99.9672 55.4092 100.332 56.495 100.332 57.8614V63.5149H98.0737V58.2178C98.0737 57.4257 97.86 56.7987 97.4326 56.3366C97.0118 55.8746 96.4497 55.6436 95.7462 55.6436C95.2399 55.6436 94.76 55.769 94.3063 56.0198C93.8592 56.2706 93.5108 56.6073 93.2609 57.0297V63.5149H91.0222V53.604H93.2609V54.9406C93.5634 54.4653 93.9874 54.0891 94.5331 53.8119C95.0788 53.5347 95.664 53.396 96.2886 53.396Z" fill="white"/>
<path d="M112.029 58.1188C112.029 58.5017 112.002 58.8284 111.95 59.099H104.435C104.56 59.9043 104.879 60.5347 105.391 60.9901C105.911 61.4455 106.568 61.6733 107.364 61.6733C107.923 61.6733 108.436 61.5611 108.902 61.3366C109.369 61.1056 109.718 60.7987 109.948 60.4158L111.743 61.5644C111.374 62.2376 110.799 62.7657 110.017 63.1485C109.241 63.5248 108.343 63.7129 107.324 63.7129C106.384 63.7129 105.523 63.4884 104.741 63.0396C103.958 62.5842 103.337 61.9571 102.877 61.1584C102.423 60.3597 102.196 59.4752 102.196 58.505C102.196 57.5611 102.42 56.6997 102.867 55.9208C103.32 55.1353 103.935 54.5182 104.711 54.0693C105.493 53.6205 106.351 53.396 107.285 53.396C108.159 53.396 108.958 53.604 109.681 54.0198C110.411 54.4356 110.983 55.0066 111.397 55.7327C111.818 56.4521 112.029 57.2475 112.029 58.1188ZM104.514 57.3663H109.662C109.603 56.7459 109.34 56.2409 108.873 55.8515C108.406 55.4554 107.834 55.2574 107.157 55.2574C106.493 55.2574 105.931 55.4455 105.47 55.8218C105.01 56.1914 104.691 56.7063 104.514 57.3663Z" fill="white"/>
<path d="M118.666 53.396C119.12 53.396 119.498 53.4488 119.8 53.5545L119.662 55.6832C119.281 55.5512 118.889 55.4851 118.488 55.4851C118.081 55.4851 117.65 55.6403 117.196 55.9505C116.743 56.2541 116.391 56.6667 116.141 57.1881V63.5149H113.902V53.604H116.141V54.9604C116.384 54.4983 116.749 54.1221 117.236 53.8317C117.722 53.5413 118.199 53.396 118.666 53.396Z" fill="white"/>
<path d="M124.603 63.7426C123.801 63.7426 123.005 63.6106 122.216 63.3465C121.427 63.0825 120.793 62.7327 120.313 62.297L121.201 60.5941C121.575 60.9571 122.082 61.2541 122.719 61.4851C123.364 61.7162 123.968 61.8317 124.534 61.8317C125.02 61.8317 125.415 61.7294 125.717 61.5248C126.02 61.3135 126.171 61.0495 126.171 60.7327C126.171 60.5149 126.092 60.33 125.934 60.1782C125.777 60.0264 125.569 59.9109 125.313 59.8317C125.057 59.7459 124.764 59.6601 124.435 59.5743C124.107 59.4818 123.768 59.3993 123.419 59.3267C123.078 59.2475 122.742 59.1353 122.414 58.9901C122.085 58.8383 121.792 58.6667 121.536 58.4753C121.279 58.2772 121.072 58.0099 120.914 57.6733C120.757 57.3366 120.678 56.9505 120.678 56.5149C120.678 55.5974 121.033 54.8482 121.743 54.2673C122.46 53.6865 123.383 53.396 124.514 53.396C125.231 53.396 125.918 53.4984 126.575 53.703C127.239 53.9076 127.785 54.2046 128.213 54.5941L127.325 56.3366C126.957 56.0132 126.473 55.7591 125.875 55.5743C125.283 55.3828 124.757 55.2871 124.297 55.2871C123.883 55.2871 123.551 55.3828 123.301 55.5743C123.051 55.7591 122.926 56.0132 122.926 56.3366C122.926 56.5611 123.028 56.7525 123.232 56.9109C123.436 57.0627 123.699 57.1881 124.021 57.2871C124.35 57.3861 124.711 57.4851 125.106 57.5842C125.5 57.6766 125.892 57.7987 126.28 57.9505C126.674 58.0957 127.032 58.2739 127.355 58.4851C127.683 58.6898 127.95 58.9802 128.153 59.3564C128.357 59.7261 128.459 60.1584 128.459 60.6535C128.459 61.5446 128.097 62.2838 127.374 62.8713C126.651 63.4521 125.727 63.7426 124.603 63.7426Z" fill="white"/>
</svg>
